<?xml version="1.0" encoding="UTF-8" standalone="no"?>
<!-- Created with Inkscape (http://www.inkscape.org/) -->

<svg
   xmlns:dc="http://purl.org/dc/elements/1.1/"
   xmlns:cc="http://creativecommons.org/ns#"
   xmlns:rdf="http://www.w3.org/1999/02/22-rdf-syntax-ns#"
   xmlns:svg="http://www.w3.org/2000/svg"
   xmlns="http://www.w3.org/2000/svg"
   xmlns:sodipodi="http://sodipodi.sourceforge.net/DTD/sodipodi-0.dtd"
   xmlns:inkscape="http://www.inkscape.org/namespaces/inkscape"
   width="744.09448819"
   height="1052.3622047"
   id="svg2"
   version="1.1"
   inkscape:version="0.48.3.1 r9886"
   sodipodi:docname="sabueso.svg">
  <defs
     id="defs4" />
  <sodipodi:namedview
     id="base"
     pagecolor="#ffffff"
     bordercolor="#666666"
     borderopacity="1.0"
     inkscape:pageopacity="0.0"
     inkscape:pageshadow="2"
     inkscape:zoom="1.9125938"
     inkscape:cx="283.4237"
     inkscape:cy="890.86724"
     inkscape:document-units="px"
     inkscape:current-layer="layer1"
     showgrid="false"
     showborder="false"
     inkscape:window-width="1280"
     inkscape:window-height="758"
     inkscape:window-x="0"
     inkscape:window-y="0"
     inkscape:window-maximized="1" />
  <metadata
     id="metadata7">
    <rdf:RDF>
      <cc:Work
         rdf:about="">
        <dc:format>image/svg+xml</dc:format>
        <dc:type
           rdf:resource="http://purl.org/dc/dcmitype/StillImage" />
        <dc:title></dc:title>
      </cc:Work>
    </rdf:RDF>
  </metadata>
  <g
     inkscape:label="Layer 1"
     inkscape:groupmode="layer"
     id="layer1">
    <path
       sodipodi:nodetypes="ssssss"
       inkscape:connector-curvature="0"
       id="path3026"
       d="m 397.88898,199.59357 c 0,49.95586 -12.87484,90.45308 -28.75676,90.45308 -6.17861,0 -7.43154,-16.55994 -21.81798,-16.55994 -17.95923,0 -6.93878,-43.37182 -6.93878,-73.89314 0,-49.95585 12.87484,-90.45307 28.75676,-90.45307 15.88192,0 28.75676,40.49722 28.75676,90.45307 z"
       style="color:#000000;fill:#ffffff;fill-opacity:1;fill-rule:nonzero;stroke:#000000;stroke-width:1;stroke-linecap:round;stroke-linejoin:round;stroke-miterlimit:4;stroke-opacity:1;stroke-dashoffset:0;marker:none;visibility:visible;display:inline;overflow:visible;enable-background:accumulate" />
    <path
       transform="translate(-7.3199023,0.52285016)"
       style="color:#000000;fill:#ffffff;fill-opacity:1;fill-rule:nonzero;stroke:#000000;stroke-width:1;stroke-linecap:round;stroke-linejoin:round;stroke-miterlimit:4;stroke-opacity:1;stroke-dashoffset:0;marker:none;visibility:visible;display:inline;overflow:visible;enable-background:accumulate"
       d="m 270.31354,199.07072 c 0,49.95586 -12.87484,90.45308 -28.75676,90.45308 -6.17861,0 -7.43154,-16.55994 -21.81798,-16.55994 -17.95923,0 -6.93878,-43.37182 -6.93878,-73.89314 0,-49.95585 12.87484,-90.45307 28.75676,-90.45307 15.88192,0 28.75676,40.49722 28.75676,90.45307 z"
       id="path3023"
       inkscape:connector-curvature="0"
       sodipodi:nodetypes="ssssss" />
    <path
       transform="translate(4.1528327,0)"
       style="color:#000000;fill:#ffffff;fill-opacity:1;fill-rule:nonzero;stroke:#000000;stroke-width:1;stroke-linecap:round;stroke-linejoin:round;stroke-miterlimit:4;stroke-opacity:1;stroke-dashoffset:0;marker:none;visibility:visible;display:inline;overflow:visible;enable-background:accumulate"
       d="m 357.00863,165.96777 c 0,41.50957 -45.0875,59.63761 -62.08846,59.63761 -17.00096,0 -62.08847,-18.12804 -62.08847,-59.63761 0,-14.763 -1.65479,-31.00709 -6.02698,-47.32434 -8.02441,-29.9475 39.24473,-70.153554 68.11545,-70.153554 28.87072,0 77.16851,36.756313 68.21975,70.153554 -3.82383,14.27073 -6.13129,34.66342 -6.13129,47.32434 z"
       id="path2990"
       inkscape:connector-curvature="0"
       sodipodi:nodetypes="szsszss" />
    <path
       style="color:#000000;fill:#ffffff;stroke:#000000;stroke-width:1;stroke-linecap:round;stroke-linejoin:round;stroke-miterlimit:4;stroke-opacity:1;stroke-dashoffset:0;marker:none;visibility:visible;display:inline;overflow:visible;enable-background:accumulate"
       d="m 349.83388,247.90787 c -31.23956,0 -12.49906,-72.52165 -49.70615,-72.52165 -37.20709,0 -14.40301,72.52165 -49.70614,72.52165 -35.30312,0 -29.8454,-107.16762 49.70614,-107.16762 79.55154,0 80.9457,107.16762 49.70615,107.16762 z"
       id="path2987"
       inkscape:connector-curvature="0"
       sodipodi:nodetypes="zzzzz" />
    <path
       style="color:#000000;fill:#ffffff;stroke:#000000;stroke-width:1;stroke-linecap:round;stroke-linejoin:round;stroke-miterlimit:4;stroke-opacity:1;stroke-dashoffset:0;marker:none;visibility:visible;display:inline;overflow:visible;enable-background:accumulate"
       d="m 329.29016,159.41548 c 0,10.15121 -18.04315,-3.32746 -21.51546,0.0914 -2.52822,2.48926 14.98056,18.58389 -8.7017,18.58389 -23.68227,0 -7.92216,-15.50503 -10.57527,-18.58389 -2.93983,-3.41163 -19.64189,5.33007 -19.64189,-0.0914 0,-10.31404 13.52869,-18.67523 30.21716,-18.67523 16.68847,0 30.21716,8.36119 30.21716,18.67523 z"
       id="path2985"
       inkscape:connector-curvature="0"
       sodipodi:nodetypes="sszssss" />
    <path
       sodipodi:type="arc"
       style="color:#000000;fill:#ffffff;fill-opacity:1;fill-rule:nonzero;stroke:#000000;stroke-width:1;stroke-linecap:round;stroke-linejoin:round;stroke-miterlimit:4;stroke-opacity:1;stroke-dasharray:none;stroke-dashoffset:0;marker:none;visibility:visible;display:inline;overflow:visible;enable-background:accumulate"
       id="path2993"
       sodipodi:cx="259.79117"
       sodipodi:cy="125.1201"
       sodipodi:rx="10.620394"
       sodipodi:ry="10.620394"
       d="m 270.41156,125.1201 a 10.620394,10.620394 0 1 1 -21.24079,0 10.620394,10.620394 0 1 1 21.24079,0 z"
       transform="translate(-2.5811787,5.2285016)" />
    <path
       d="m 270.41156,125.1201 a 10.620394,10.620394 0 1 1 -21.24079,0 10.620394,10.620394 0 1 1 21.24079,0 z"
       sodipodi:ry="10.620394"
       sodipodi:rx="10.620394"
       sodipodi:cy="125.1201"
       sodipodi:cx="259.79117"
       id="path2995"
       style="color:#000000;fill:#ffffff;fill-opacity:1;fill-rule:nonzero;stroke:#000000;stroke-width:1;stroke-linecap:round;stroke-linejoin:round;stroke-miterlimit:4;stroke-opacity:1;stroke-dasharray:none;stroke-dashoffset:0;marker:none;visibility:visible;display:inline;overflow:visible;enable-background:accumulate"
       sodipodi:type="arc"
       transform="translate(81.957157,5.2285016)" />
  </g>
</svg>
