<?xml version="1.0" encoding="UTF-8" standalone="no"?>
<!-- Created with Inkscape (http://www.inkscape.org/) -->

<svg
   xmlns:dc="http://purl.org/dc/elements/1.1/"
   xmlns:cc="http://creativecommons.org/ns#"
   xmlns:rdf="http://www.w3.org/1999/02/22-rdf-syntax-ns#"
   xmlns:svg="http://www.w3.org/2000/svg"
   xmlns="http://www.w3.org/2000/svg"
   xmlns:sodipodi="http://sodipodi.sourceforge.net/DTD/sodipodi-0.dtd"
   xmlns:inkscape="http://www.inkscape.org/namespaces/inkscape"
   width="216.75493"
   height="262.55676"
   id="svg2"
   version="1.1"
   inkscape:version="0.48.3.1 r9886"
   sodipodi:docname="sabueso.svg">
  <defs
     id="defs4" />
  <sodipodi:namedview
     id="base"
     pagecolor="#ffffff"
     bordercolor="#666666"
     borderopacity="1.0"
     inkscape:pageopacity="0.0"
     inkscape:pageshadow="2"
     inkscape:zoom="1.5625"
     inkscape:cx="108.63814"
     inkscape:cy="113.28363"
     inkscape:document-units="px"
     inkscape:current-layer="layer1"
     showgrid="false"
     showborder="false"
     inkscape:window-width="1280"
     inkscape:window-height="758"
     inkscape:window-x="0"
     inkscape:window-y="0"
     inkscape:window-maximized="1"
     fit-margin-top="10"
     fit-margin-left="10"
     fit-margin-right="10"
     fit-margin-bottom="10" />
  <metadata
     id="metadata7">
    <rdf:RDF>
      <cc:Work
         rdf:about="">
        <dc:format>image/svg+xml</dc:format>
        <dc:type
           rdf:resource="http://purl.org/dc/dcmitype/StillImage" />
        <dc:title />
      </cc:Work>
    </rdf:RDF>
  </metadata>
  <g
     inkscape:label="Layer 1"
     inkscape:groupmode="layer"
     id="layer1"
     transform="translate(-191.63405,-37.989876)">
    <g
       id="g3858"
       transform="matrix(-1,0,0,1,600.02303,3.07e-6)">
      <path
         style="color:#000000;fill:#2d200b;fill-opacity:1;fill-rule:nonzero;stroke:none;stroke-width:1;marker:none;visibility:visible;display:inline;overflow:visible;enable-background:accumulate"
         d="m 337.02939,199.59357 c 0,49.95586 12.87484,90.45308 28.75676,90.45308 6.17861,0 7.43154,-16.55994 21.81798,-16.55994 17.95923,0 6.93878,-43.37182 6.93878,-73.89314 0,-49.95585 -12.87484,-90.45307 -28.75676,-90.45307 -15.88192,0 -28.75676,40.49722 -28.75676,90.45307 z"
         id="path3026"
         inkscape:connector-curvature="0"
         sodipodi:nodetypes="ssssss" />
      <path
         sodipodi:nodetypes="ssssss"
         inkscape:connector-curvature="0"
         id="path3023"
         d="m 270.31354,199.07072 c 0,49.95586 -12.87484,90.45308 -28.75676,90.45308 -6.17861,0 -7.43154,-16.55994 -21.81798,-16.55994 -17.95923,0 -6.93878,-43.37182 -6.93878,-73.89314 0,-49.95585 12.87484,-90.45307 28.75676,-90.45307 15.88192,0 28.75676,40.49722 28.75676,90.45307 z"
         style="color:#000000;fill:#2d200b;fill-opacity:1;fill-rule:nonzero;stroke:none;stroke-width:1;marker:none;visibility:visible;display:inline;overflow:visible;enable-background:accumulate"
         transform="translate(-7.3199023,0.52285016)" />
      <path
         sodipodi:nodetypes="szsszss"
         inkscape:connector-curvature="0"
         id="path2990"
         d="m 357.00863,165.96777 c 0,41.50957 -43.24942,59.63761 -60.25038,59.63761 -17.00096,0 -63.92655,-18.12804 -63.92655,-59.63761 0,-14.763 -1.65479,-31.00709 -6.02698,-47.32434 -8.02441,-29.9475 41.08281,-70.153554 69.95353,-70.153554 28.87072,0 75.33043,36.756313 66.38167,70.153554 -3.82383,14.27073 -6.13129,34.66342 -6.13129,47.32434 z"
         style="color:#000000;fill:#8d6935;fill-opacity:1;fill-rule:nonzero;stroke:none;stroke-width:1;marker:none;visibility:visible;display:inline;overflow:visible;enable-background:accumulate"
         transform="translate(4.1528327,0)" />
      <path
         style="color:#000000;fill:#2d200b;fill-opacity:1;fill-rule:nonzero;stroke:#ffffff;stroke-width:1;stroke-linecap:round;stroke-linejoin:round;stroke-miterlimit:4;stroke-opacity:1;stroke-dasharray:none;stroke-dashoffset:0;marker:none;visibility:visible;display:inline;overflow:visible;enable-background:accumulate"
         d="m 107.09375,132.28125 c -23.474231,0 -43.157194,12.32332 -48.5,28.9375 14.021781,18.12635 37.401934,34.05666 48.875,34.05666 10.80147,0 33.6865,-14.98035 48.9375,-30.96291 -3.76548,-18.15445 -24.40283,-32.03125 -49.3125,-32.03125 z"
         transform="matrix(-1,0,0,1,408.38898,37.989873)"
         id="path3870"
         inkscape:connector-curvature="0"
         sodipodi:nodetypes="scscs" />
      <path
         sodipodi:nodetypes="zzzzz"
         inkscape:connector-curvature="0"
         id="path2987"
         d="m 331.2575,247.90787 c -59.25344,0 6.86068,-72.52165 -30.34641,-72.52165 -37.20709,0 26.1936,72.52165 -31.91312,72.52165 -58.10671,0 -47.63842,-107.16762 31.91312,-107.16762 79.55154,0 89.59984,107.16762 30.34641,107.16762 z"
         style="color:#000000;fill:#d7b278;fill-opacity:1;stroke:none;stroke-width:1;marker:none;visibility:visible;display:inline;overflow:visible;enable-background:accumulate" />
      <path
         sodipodi:nodetypes="sszssss"
         inkscape:connector-curvature="0"
         id="path2985"
         d="m 320.49016,159.41548 c 0,10.15121 -8.2475,-3.32746 -10.70858,0.0914 -1.79194,2.48926 6.07681,18.58389 -10.70858,18.58389 -16.78539,0 -8.82813,-15.50503 -10.70858,-18.58389 -2.08368,-3.41163 -10.70858,5.33007 -10.70858,-0.0914 0,-10.31404 9.58879,-18.67523 21.41716,-18.67523 11.82837,0 21.41716,8.36119 21.41716,18.67523 z"
         style="color:#000000;fill:#000000;stroke:none;stroke-width:1;marker:none;visibility:visible;display:inline;overflow:visible;enable-background:accumulate" />
      <path
         sodipodi:type="arc"
         style="color:#000000;fill:#ffffff;fill-opacity:1;fill-rule:nonzero;stroke:none;stroke-width:1;marker:none;visibility:visible;display:inline;overflow:visible;enable-background:accumulate"
         id="path3848"
         sodipodi:cx="259.79117"
         sodipodi:cy="125.1201"
         sodipodi:rx="10.620394"
         sodipodi:ry="10.620394"
         d="m 270.41156,125.1201 c 0,5.86548 -4.75491,10.6204 -10.62039,10.6204 -5.86548,0 -10.6204,-4.75492 -10.6204,-10.6204 0,-5.86548 4.75492,-10.62039 10.6204,-10.62039 5.86548,0 10.62039,4.75491 10.62039,10.62039 z"
         transform="matrix(1.1982576,0,0,1.526374,-55.683243,-57.723308)" />
      <path
         transform="matrix(1.1982576,0,0,1.1982576,-55.683243,-20.15408)"
         d="m 270.41156,125.1201 c 0,5.86548 -4.75491,10.6204 -10.62039,10.6204 -5.86548,0 -10.6204,-4.75492 -10.6204,-10.6204 0,-5.86548 4.75492,-10.62039 10.6204,-10.62039 5.86548,0 10.62039,4.75491 10.62039,10.62039 z"
         sodipodi:ry="10.620394"
         sodipodi:rx="10.620394"
         sodipodi:cy="125.1201"
         sodipodi:cx="259.79117"
         id="path2993"
         style="color:#000000;fill:#000000;fill-opacity:1;fill-rule:nonzero;stroke:none;stroke-width:1;marker:none;visibility:visible;display:inline;overflow:visible;enable-background:accumulate"
         sodipodi:type="arc" />
      <path
         d="m 270.41156,125.1201 c 0,5.86548 -4.75491,10.6204 -10.62039,10.6204 -5.86548,0 -10.6204,-4.75492 -10.6204,-10.6204 0,-5.86548 4.75492,-10.62039 10.6204,-10.62039 5.86548,0 10.62039,4.75491 10.62039,10.62039 z"
         sodipodi:ry="10.620394"
         sodipodi:rx="10.620394"
         sodipodi:cy="125.1201"
         sodipodi:cx="259.79117"
         id="path3850"
         style="color:#000000;fill:#ffffff;fill-opacity:1;fill-rule:nonzero;stroke:none;stroke-width:1;marker:none;visibility:visible;display:inline;overflow:visible;enable-background:accumulate"
         sodipodi:type="arc"
         transform="matrix(1.1982576,0,0,1.526374,31.525224,-57.723308)" />
      <path
         transform="matrix(1.1982576,0,0,1.1982576,31.525224,-20.15408)"
         sodipodi:type="arc"
         style="color:#000000;fill:#000000;fill-opacity:1;fill-rule:nonzero;stroke:none;stroke-width:1;marker:none;visibility:visible;display:inline;overflow:visible;enable-background:accumulate"
         id="path2995"
         sodipodi:cx="259.79117"
         sodipodi:cy="125.1201"
         sodipodi:rx="10.620394"
         sodipodi:ry="10.620394"
         d="m 270.41156,125.1201 c 0,5.86548 -4.75491,10.6204 -10.62039,10.6204 -5.86548,0 -10.6204,-4.75492 -10.6204,-10.6204 0,-5.86548 4.75492,-10.62039 10.6204,-10.62039 5.86548,0 10.62039,4.75491 10.62039,10.62039 z" />
      <path
         sodipodi:type="arc"
         style="color:#000000;fill:#ffffff;fill-opacity:1;fill-rule:nonzero;stroke:none;stroke-width:1;marker:none;visibility:visible;display:inline;overflow:visible;enable-background:accumulate"
         id="path3894"
         sodipodi:cx="156.76212"
         sodipodi:cy="86.13385"
         sodipodi:rx="2.6214399"
         sodipodi:ry="2.6214399"
         d="m 159.38356,86.13385 c 0,1.447781 -1.17366,2.62144 -2.62144,2.62144 -1.44779,0 -2.62144,-1.173659 -2.62144,-2.62144 0,-1.447781 1.17365,-2.62144 2.62144,-2.62144 1.44778,0 2.62144,1.173659 2.62144,2.62144 z"
         transform="matrix(-1,0,0,1,407.60255,37.989873)" />
      <path
         transform="matrix(-1,0,0,1,494.88224,37.989873)"
         d="m 159.38356,86.13385 c 0,1.447781 -1.17366,2.62144 -2.62144,2.62144 -1.44779,0 -2.62144,-1.173659 -2.62144,-2.62144 0,-1.447781 1.17365,-2.62144 2.62144,-2.62144 1.44778,0 2.62144,1.173659 2.62144,2.62144 z"
         sodipodi:ry="2.6214399"
         sodipodi:rx="2.6214399"
         sodipodi:cy="86.13385"
         sodipodi:cx="156.76212"
         id="path3896"
         style="color:#000000;fill:#ffffff;fill-opacity:1;fill-rule:nonzero;stroke:none;stroke-width:1;marker:none;visibility:visible;display:inline;overflow:visible;enable-background:accumulate"
         sodipodi:type="arc" />
      <g
         id="g4015"
         transform="translate(-2.5591058,0)">
        <g
           transform="translate(-4.096,-5.3248)"
           id="g3956">
          <path
             transform="matrix(-1,0,0,1,406.78335,122.36747)"
             d="m 159.38356,86.13385 c 0,1.447781 -1.17366,2.62144 -2.62144,2.62144 -1.44779,0 -2.62144,-1.173659 -2.62144,-2.62144 0,-1.447781 1.17365,-2.62144 2.62144,-2.62144 1.44778,0 2.62144,1.173659 2.62144,2.62144 z"
             sodipodi:ry="2.6214399"
             sodipodi:rx="2.6214399"
             sodipodi:cy="86.13385"
             sodipodi:cx="156.76212"
             id="path3898"
             style="color:#000000;fill:#8d6935;fill-opacity:1;fill-rule:nonzero;stroke:none;stroke-width:1;marker:none;visibility:visible;display:inline;overflow:visible;enable-background:accumulate"
             sodipodi:type="arc" />
          <path
             sodipodi:type="arc"
             style="color:#000000;fill:#8d6935;fill-opacity:1;fill-rule:nonzero;stroke:none;stroke-width:1;marker:none;visibility:visible;display:inline;overflow:visible;enable-background:accumulate"
             id="path3900"
             sodipodi:cx="156.76212"
             sodipodi:cy="86.13385"
             sodipodi:rx="2.6214399"
             sodipodi:ry="2.6214399"
             d="m 159.38356,86.13385 c 0,1.447781 -1.17366,2.62144 -2.62144,2.62144 -1.44779,0 -2.62144,-1.173659 -2.62144,-2.62144 0,-1.447781 1.17365,-2.62144 2.62144,-2.62144 1.44778,0 2.62144,1.173659 2.62144,2.62144 z"
             transform="matrix(-1,0,0,1,406.78335,134.24587)" />
          <path
             transform="matrix(-1,0,0,1,406.78335,146.12427)"
             d="m 159.38356,86.13385 c 0,1.447781 -1.17366,2.62144 -2.62144,2.62144 -1.44779,0 -2.62144,-1.173659 -2.62144,-2.62144 0,-1.447781 1.17365,-2.62144 2.62144,-2.62144 1.44778,0 2.62144,1.173659 2.62144,2.62144 z"
             sodipodi:ry="2.6214399"
             sodipodi:rx="2.6214399"
             sodipodi:cy="86.13385"
             sodipodi:cx="156.76212"
             id="path3902"
             style="color:#000000;fill:#8d6935;fill-opacity:1;fill-rule:nonzero;stroke:none;stroke-width:1;marker:none;visibility:visible;display:inline;overflow:visible;enable-background:accumulate"
             sodipodi:type="arc" />
        </g>
        <g
           transform="translate(-0.16777039,0)"
           id="g3951">
          <g
             transform="translate(-4.096,-5.15703)"
             id="g3963">
            <path
               transform="matrix(-1,0,0,1,419.19849,115.99213)"
               d="m 159.38356,86.13385 c 0,1.447781 -1.17366,2.62144 -2.62144,2.62144 -1.44779,0 -2.62144,-1.173659 -2.62144,-2.62144 0,-1.447781 1.17365,-2.62144 2.62144,-2.62144 1.44778,0 2.62144,1.173659 2.62144,2.62144 z"
               sodipodi:ry="2.6214399"
               sodipodi:rx="2.6214399"
               sodipodi:cy="86.13385"
               sodipodi:cx="156.76212"
               id="path3934"
               style="color:#000000;fill:#8d6935;fill-opacity:1;fill-rule:nonzero;stroke:none;stroke-width:1;marker:none;visibility:visible;display:inline;overflow:visible;enable-background:accumulate"
               sodipodi:type="arc" />
            <path
               sodipodi:type="arc"
               style="color:#000000;fill:#8d6935;fill-opacity:1;fill-rule:nonzero;stroke:none;stroke-width:1;marker:none;visibility:visible;display:inline;overflow:visible;enable-background:accumulate"
               id="path3936"
               sodipodi:cx="156.76212"
               sodipodi:cy="86.13385"
               sodipodi:rx="2.6214399"
               sodipodi:ry="2.6214399"
               d="m 159.38356,86.13385 c 0,1.447781 -1.17366,2.62144 -2.62144,2.62144 -1.44779,0 -2.62144,-1.173659 -2.62144,-2.62144 0,-1.447781 1.17365,-2.62144 2.62144,-2.62144 1.44778,0 2.62144,1.173659 2.62144,2.62144 z"
               transform="matrix(-1,0,0,1,419.19849,128.04945)" />
            <path
               transform="matrix(-1,0,0,1,419.19849,140.10676)"
               d="m 159.38356,86.13385 c 0,1.447781 -1.17366,2.62144 -2.62144,2.62144 -1.44779,0 -2.62144,-1.173659 -2.62144,-2.62144 0,-1.447781 1.17365,-2.62144 2.62144,-2.62144 1.44778,0 2.62144,1.173659 2.62144,2.62144 z"
               sodipodi:ry="2.6214399"
               sodipodi:rx="2.6214399"
               sodipodi:cy="86.13385"
               sodipodi:cx="156.76212"
               id="path3938"
               style="color:#000000;fill:#8d6935;fill-opacity:1;fill-rule:nonzero;stroke:none;stroke-width:1;marker:none;visibility:visible;display:inline;overflow:visible;enable-background:accumulate"
               sodipodi:type="arc" />
            <path
               sodipodi:type="arc"
               style="color:#000000;fill:#8d6935;fill-opacity:1;fill-rule:nonzero;stroke:none;stroke-width:1;marker:none;visibility:visible;display:inline;overflow:visible;enable-background:accumulate"
               id="path3961"
               sodipodi:cx="156.76212"
               sodipodi:cy="86.13385"
               sodipodi:rx="2.6214399"
               sodipodi:ry="2.6214399"
               d="m 159.38356,86.13385 c 0,1.447781 -1.17366,2.62144 -2.62144,2.62144 -1.44779,0 -2.62144,-1.173659 -2.62144,-2.62144 0,-1.447781 1.17365,-2.62144 2.62144,-2.62144 1.44778,0 2.62144,1.173659 2.62144,2.62144 z"
               transform="matrix(-1,0,0,1,419.19849,152.16407)" />
          </g>
        </g>
        <g
           transform="translate(-4.096,-5.3248)"
           id="g3946">
          <path
             sodipodi:type="arc"
             style="color:#000000;fill:#8d6935;fill-opacity:1;fill-rule:nonzero;stroke:none;stroke-width:1;marker:none;visibility:visible;display:inline;overflow:visible;enable-background:accumulate"
             id="path3940"
             sodipodi:cx="156.76212"
             sodipodi:cy="86.13385"
             sodipodi:rx="2.6214399"
             sodipodi:ry="2.6214399"
             d="m 159.38356,86.13385 c 0,1.447781 -1.17366,2.62144 -2.62144,2.62144 -1.44779,0 -2.62144,-1.173659 -2.62144,-2.62144 0,-1.447781 1.17365,-2.62144 2.62144,-2.62144 1.44778,0 2.62144,1.173659 2.62144,2.62144 z"
             transform="matrix(-1,0,0,1,431.27809,122.36747)" />
          <path
             transform="matrix(-1,0,0,1,431.27809,134.24587)"
             d="m 159.38356,86.13385 c 0,1.447781 -1.17366,2.62144 -2.62144,2.62144 -1.44779,0 -2.62144,-1.173659 -2.62144,-2.62144 0,-1.447781 1.17365,-2.62144 2.62144,-2.62144 1.44778,0 2.62144,1.173659 2.62144,2.62144 z"
             sodipodi:ry="2.6214399"
             sodipodi:rx="2.6214399"
             sodipodi:cy="86.13385"
             sodipodi:cx="156.76212"
             id="path3942"
             style="color:#000000;fill:#8d6935;fill-opacity:1;fill-rule:nonzero;stroke:none;stroke-width:1;marker:none;visibility:visible;display:inline;overflow:visible;enable-background:accumulate"
             sodipodi:type="arc" />
          <path
             sodipodi:type="arc"
             style="color:#000000;fill:#8d6935;fill-opacity:1;fill-rule:nonzero;stroke:none;stroke-width:1;marker:none;visibility:visible;display:inline;overflow:visible;enable-background:accumulate"
             id="path3944"
             sodipodi:cx="156.76212"
             sodipodi:cy="86.13385"
             sodipodi:rx="2.6214399"
             sodipodi:ry="2.6214399"
             d="m 159.38356,86.13385 c 0,1.447781 -1.17366,2.62144 -2.62144,2.62144 -1.44779,0 -2.62144,-1.173659 -2.62144,-2.62144 0,-1.447781 1.17365,-2.62144 2.62144,-2.62144 1.44778,0 2.62144,1.173659 2.62144,2.62144 z"
             transform="matrix(-1,0,0,1,431.27809,146.12427)" />
        </g>
      </g>
      <g
         id="g4000"
         transform="translate(4.3677612,0)">
        <g
           id="g3977"
           transform="translate(76.01783,-5.1570301)">
          <path
             sodipodi:type="arc"
             style="color:#000000;fill:#8d6935;fill-opacity:1;fill-rule:nonzero;stroke:none;stroke-width:1;marker:none;visibility:visible;display:inline;overflow:visible;enable-background:accumulate"
             id="path3979"
             sodipodi:cx="156.76212"
             sodipodi:cy="86.13385"
             sodipodi:rx="2.6214399"
             sodipodi:ry="2.6214399"
             d="m 159.38356,86.13385 c 0,1.447781 -1.17366,2.62144 -2.62144,2.62144 -1.44779,0 -2.62144,-1.173659 -2.62144,-2.62144 0,-1.447781 1.17365,-2.62144 2.62144,-2.62144 1.44778,0 2.62144,1.173659 2.62144,2.62144 z"
             transform="matrix(-1,0,0,1,419.19849,115.99213)" />
          <path
             transform="matrix(-1,0,0,1,419.19849,128.04945)"
             d="m 159.38356,86.13385 c 0,1.447781 -1.17366,2.62144 -2.62144,2.62144 -1.44779,0 -2.62144,-1.173659 -2.62144,-2.62144 0,-1.447781 1.17365,-2.62144 2.62144,-2.62144 1.44778,0 2.62144,1.173659 2.62144,2.62144 z"
             sodipodi:ry="2.6214399"
             sodipodi:rx="2.6214399"
             sodipodi:cy="86.13385"
             sodipodi:cx="156.76212"
             id="path3981"
             style="color:#000000;fill:#8d6935;fill-opacity:1;fill-rule:nonzero;stroke:none;stroke-width:1;marker:none;visibility:visible;display:inline;overflow:visible;enable-background:accumulate"
             sodipodi:type="arc" />
          <path
             sodipodi:type="arc"
             style="color:#000000;fill:#8d6935;fill-opacity:1;fill-rule:nonzero;stroke:none;stroke-width:1;marker:none;visibility:visible;display:inline;overflow:visible;enable-background:accumulate"
             id="path3983"
             sodipodi:cx="156.76212"
             sodipodi:cy="86.13385"
             sodipodi:rx="2.6214399"
             sodipodi:ry="2.6214399"
             d="m 159.38356,86.13385 c 0,1.447781 -1.17366,2.62144 -2.62144,2.62144 -1.44779,0 -2.62144,-1.173659 -2.62144,-2.62144 0,-1.447781 1.17365,-2.62144 2.62144,-2.62144 1.44778,0 2.62144,1.173659 2.62144,2.62144 z"
             transform="matrix(-1,0,0,1,419.19849,140.10676)" />
          <path
             transform="matrix(-1,0,0,1,419.19849,152.16407)"
             d="m 159.38356,86.13385 c 0,1.447781 -1.17366,2.62144 -2.62144,2.62144 -1.44779,0 -2.62144,-1.173659 -2.62144,-2.62144 0,-1.447781 1.17365,-2.62144 2.62144,-2.62144 1.44778,0 2.62144,1.173659 2.62144,2.62144 z"
             sodipodi:ry="2.6214399"
             sodipodi:rx="2.6214399"
             sodipodi:cy="86.13385"
             sodipodi:cx="156.76212"
             id="path3985"
             style="color:#000000;fill:#8d6935;fill-opacity:1;fill-rule:nonzero;stroke:none;stroke-width:1;marker:none;visibility:visible;display:inline;overflow:visible;enable-background:accumulate"
             sodipodi:type="arc" />
        </g>
        <g
           id="g3969"
           transform="translate(76.1856,-5.3248)">
          <path
             sodipodi:type="arc"
             style="color:#000000;fill:#8d6935;fill-opacity:1;fill-rule:nonzero;stroke:none;stroke-width:1;marker:none;visibility:visible;display:inline;overflow:visible;enable-background:accumulate"
             id="path3971"
             sodipodi:cx="156.76212"
             sodipodi:cy="86.13385"
             sodipodi:rx="2.6214399"
             sodipodi:ry="2.6214399"
             d="m 159.38356,86.13385 c 0,1.447781 -1.17366,2.62144 -2.62144,2.62144 -1.44779,0 -2.62144,-1.173659 -2.62144,-2.62144 0,-1.447781 1.17365,-2.62144 2.62144,-2.62144 1.44778,0 2.62144,1.173659 2.62144,2.62144 z"
             transform="matrix(-1,0,0,1,406.78335,122.36747)" />
          <path
             transform="matrix(-1,0,0,1,406.78335,134.24587)"
             d="m 159.38356,86.13385 c 0,1.447781 -1.17366,2.62144 -2.62144,2.62144 -1.44779,0 -2.62144,-1.173659 -2.62144,-2.62144 0,-1.447781 1.17365,-2.62144 2.62144,-2.62144 1.44778,0 2.62144,1.173659 2.62144,2.62144 z"
             sodipodi:ry="2.6214399"
             sodipodi:rx="2.6214399"
             sodipodi:cy="86.13385"
             sodipodi:cx="156.76212"
             id="path3973"
             style="color:#000000;fill:#8d6935;fill-opacity:1;fill-rule:nonzero;stroke:none;stroke-width:1;marker:none;visibility:visible;display:inline;overflow:visible;enable-background:accumulate"
             sodipodi:type="arc" />
          <path
             sodipodi:type="arc"
             style="color:#000000;fill:#8d6935;fill-opacity:1;fill-rule:nonzero;stroke:none;stroke-width:1;marker:none;visibility:visible;display:inline;overflow:visible;enable-background:accumulate"
             id="path3975"
             sodipodi:cx="156.76212"
             sodipodi:cy="86.13385"
             sodipodi:rx="2.6214399"
             sodipodi:ry="2.6214399"
             d="m 159.38356,86.13385 c 0,1.447781 -1.17366,2.62144 -2.62144,2.62144 -1.44779,0 -2.62144,-1.173659 -2.62144,-2.62144 0,-1.447781 1.17365,-2.62144 2.62144,-2.62144 1.44778,0 2.62144,1.173659 2.62144,2.62144 z"
             transform="matrix(-1,0,0,1,406.78335,146.12427)" />
        </g>
        <g
           id="g3987"
           transform="translate(76.1856,-5.3248)">
          <path
             transform="matrix(-1,0,0,1,431.27809,122.36747)"
             d="m 159.38356,86.13385 c 0,1.447781 -1.17366,2.62144 -2.62144,2.62144 -1.44779,0 -2.62144,-1.173659 -2.62144,-2.62144 0,-1.447781 1.17365,-2.62144 2.62144,-2.62144 1.44778,0 2.62144,1.173659 2.62144,2.62144 z"
             sodipodi:ry="2.6214399"
             sodipodi:rx="2.6214399"
             sodipodi:cy="86.13385"
             sodipodi:cx="156.76212"
             id="path3989"
             style="color:#000000;fill:#8d6935;fill-opacity:1;fill-rule:nonzero;stroke:none;stroke-width:1;marker:none;visibility:visible;display:inline;overflow:visible;enable-background:accumulate"
             sodipodi:type="arc" />
          <path
             sodipodi:type="arc"
             style="color:#000000;fill:#8d6935;fill-opacity:1;fill-rule:nonzero;stroke:none;stroke-width:1;marker:none;visibility:visible;display:inline;overflow:visible;enable-background:accumulate"
             id="path3991"
             sodipodi:cx="156.76212"
             sodipodi:cy="86.13385"
             sodipodi:rx="2.6214399"
             sodipodi:ry="2.6214399"
             d="m 159.38356,86.13385 c 0,1.447781 -1.17366,2.62144 -2.62144,2.62144 -1.44779,0 -2.62144,-1.173659 -2.62144,-2.62144 0,-1.447781 1.17365,-2.62144 2.62144,-2.62144 1.44778,0 2.62144,1.173659 2.62144,2.62144 z"
             transform="matrix(-1,0,0,1,431.27809,134.24587)" />
          <path
             transform="matrix(-1,0,0,1,431.27809,146.12427)"
             d="m 159.38356,86.13385 c 0,1.447781 -1.17366,2.62144 -2.62144,2.62144 -1.44779,0 -2.62144,-1.173659 -2.62144,-2.62144 0,-1.447781 1.17365,-2.62144 2.62144,-2.62144 1.44778,0 2.62144,1.173659 2.62144,2.62144 z"
             sodipodi:ry="2.6214399"
             sodipodi:rx="2.6214399"
             sodipodi:cy="86.13385"
             sodipodi:cx="156.76212"
             id="path3993"
             style="color:#000000;fill:#8d6935;fill-opacity:1;fill-rule:nonzero;stroke:none;stroke-width:1;marker:none;visibility:visible;display:inline;overflow:visible;enable-background:accumulate"
             sodipodi:type="arc" />
        </g>
      </g>
    </g>
  </g>
</svg>
